<?xml version="1.0" encoding="UTF-8" standalone="no"?>
<!-- Created with Inkscape (http://www.inkscape.org/) -->

<svg
   xmlns:dc="http://purl.org/dc/elements/1.1/"
   xmlns:cc="http://creativecommons.org/ns#"
   xmlns:rdf="http://www.w3.org/1999/02/22-rdf-syntax-ns#"
   xmlns:svg="http://www.w3.org/2000/svg"
   xmlns="http://www.w3.org/2000/svg"
   xmlns:sodipodi="http://sodipodi.sourceforge.net/DTD/sodipodi-0.dtd"
   xmlns:inkscape="http://www.inkscape.org/namespaces/inkscape"
   width="87mm"
   height="120mm"
   viewBox="0 0 87 120"
   version="1.1"
   id="svg5598"
   inkscape:version="0.92.2 (5c3e80d, 2017-08-06)"
   sodipodi:docname="FISH_logo.svg">
  <defs
     id="defs5592" />
  <sodipodi:namedview
     id="base"
     pagecolor="#ffffff"
     bordercolor="#666666"
     borderopacity="1.0"
     inkscape:pageopacity="0.0"
     inkscape:pageshadow="2"
     inkscape:zoom="1.4"
     inkscape:cx="-0.0022915866"
     inkscape:cy="217.86378"
     inkscape:document-units="mm"
     inkscape:current-layer="layer1"
     showgrid="false"
     inkscape:window-width="1920"
     inkscape:window-height="1013"
     inkscape:window-x="-9"
     inkscape:window-y="-9"
     inkscape:window-maximized="1" />
  <metadata
     id="metadata5595">
    <rdf:RDF>
      <cc:Work
         rdf:about="">
        <dc:format>image/svg+xml</dc:format>
        <dc:type
           rdf:resource="http://purl.org/dc/dcmitype/StillImage" />
        <dc:title />
      </cc:Work>
    </rdf:RDF>
  </metadata>
  <g
     inkscape:groupmode="layer"
     id="layer2"
     inkscape:label="Layer 2"
     style="display:inline;opacity:1"
     transform="translate(0,-177)">
    <path
       style="fill:#000000;fill-opacity:1;stroke:none;stroke-width:0.99999994px;stroke-linecap:butt;stroke-linejoin:miter;stroke-opacity:1"
       d="M 7.5761719 129.28516 L 8.2070312 449.37695 L 323.62695 447.35547 L 320.0918 130.16797 L 306.96094 130.16797 L 307.30078 160.42773 C 261.1343 141.72241 143.47063 113.83649 54.572266 227.86328 C 31.305212 202.54672 22.492534 153.66801 20.708984 145.57227 C 20.708984 140.01644 20.582031 129.53711 20.582031 129.53711 L 7.5761719 129.28516 z M 220.5 155.38477 C 245.08052 155.52079 272.36259 160.4888 302.25977 172.45508 C 287.36399 255.49707 152.36705 332.20721 61.117188 239.6582 C 73.946271 222.02455 128.27204 154.8744 220.5 155.38477 z M 21.072266 194.43555 C 24.643694 207.47125 43.571151 238.36553 45.892578 239.97266 C 42.142576 244.79409 23.927734 274.6144 21.427734 286.04297 C 21.427734 286.04297 21.250837 225.86413 21.072266 194.43555 z M 307.71484 197.39453 L 310.36914 434.34961 L 21.212891 436.24414 L 21.212891 326.89453 C 25.7014 302.11606 43.69824 262.87099 55.21875 251.3457 C 155.76678 349.7656 279.23379 266.44004 307.71484 197.39453 z "
       transform="matrix(0.26458333,0,0,0.26458333,0,177)"
       id="path839" />
  </g>
  <g
     inkscape:label="Layer 1"
     inkscape:groupmode="layer"
     id="layer1"
     transform="translate(0,-177)"
     style="display:inline;opacity:1">
    <g
       id="g894">
      <g
         style="opacity:1"
         transform="translate(-32.874151,169.18161)"
         id="g6184">
        <path
           style="fill:none;stroke:#000000;stroke-width:3.46499991;stroke-linecap:square;stroke-linejoin:miter;stroke-miterlimit:4;stroke-dasharray:none;stroke-opacity:1"
           d="m 36.615925,43.762122 0.133636,81.249938 80.047219,-0.53454 -0.93544,-82.185381 c 1.06907,44.500376 -67.485557,64.946501 -79.245415,4.276313 l 0.267271,47.173071 C 41.483023,78.180404 48.487946,67.580791 56.453465,60.500129 81.117497,38.575921 114.99114,50.389235 115.19316,53.116556"
           id="path6154"
           inkscape:connector-curvature="0"
           sodipodi:nodetypes="ccccccsc" />
        <path
           inkscape:connector-curvature="0"
           id="path6156"
           d="m 99.077014,56.252789 a 2.5040922,2.5749629 0 0 1 -2.504092,2.574962 2.5040922,2.5749629 0 0 1 -2.504092,-2.574962 2.5040922,2.5749629 0 0 1 2.504092,-2.574963 2.5040922,2.5749629 0 0 1 2.504092,2.574963 z"
           style="opacity:1;fill:#000000;fill-opacity:1;stroke:none;stroke-width:4.90747547;stroke-linecap:square;stroke-linejoin:round;stroke-miterlimit:4;stroke-dasharray:none;stroke-opacity:1" />
        <g
           id="text6160"
           style="font-style:normal;font-weight:normal;font-size:39.67152786px;line-height:1.25;font-family:sans-serif;letter-spacing:0px;word-spacing:0px;fill:#000000;fill-opacity:1;stroke:none;stroke-width:0.99178821"
           transform="scale(0.99980807,1.000192)"
           aria-label="FlSH">
          <path
             inkscape:connector-curvature="0"
             id="path824"
             style="stroke-width:0.99178821"
             d="m 53.142061,14.232995 h -14.58626 v 8.135763 H 51.088749 V 25.77803 H 38.555801 V 39.666939 H 34.72037 V 10.823723 h 18.421691 z" />
          <path
             inkscape:connector-curvature="0"
             id="path826"
             style="stroke-width:0.99178821"
             d="M 60.890405,39.666939 H 57.248683 V 9.5258756 h 3.641722 z" />
          <path
             inkscape:connector-curvature="0"
             id="path828"
             style="stroke-width:0.99178821"
             d="m 89.384943,31.434322 q 0,1.685265 -0.794205,3.331788 -0.774835,1.646524 -2.188908,2.789405 -1.549669,1.239735 -3.622351,1.937086 -2.053312,0.697351 -4.958941,0.697351 -3.118709,0 -5.617551,-0.581126 -2.47947,-0.581126 -5.055795,-1.724007 v -4.803974 h 0.271192 q 2.188908,1.820861 5.055796,2.808775 2.866887,0.987914 5.3851,0.987914 3.564238,0 5.540066,-1.336589 1.995199,-1.33659 1.995199,-3.564239 0,-1.917715 -0.949172,-2.828146 Q 83.515572,28.238129 81.597856,27.734487 80.145041,27.34707 78.440405,27.095249 76.75514,26.843427 74.856796,26.45601 71.021365,25.642434 69.161762,23.685977 67.32153,21.710149 67.32153,18.552698 q 0,-3.622352 3.060596,-5.927484 3.060597,-2.324504 7.767716,-2.324504 3.041226,0 5.578809,0.581126 2.537583,0.581126 4.49404,1.433444 v 4.532782 h -0.271192 q -1.646523,-1.394702 -4.339073,-2.305133 -2.673179,-0.929801 -5.481954,-0.929801 -3.079968,0 -4.958941,1.278477 -1.859603,1.278477 -1.859603,3.293046 0,1.801491 0.929801,2.828147 0.929802,1.026655 3.273676,1.569039 1.239735,0.271193 3.525497,0.65861 2.285762,0.387417 3.874173,0.794205 3.215563,0.852318 4.842716,2.576325 1.627152,1.724007 1.627152,4.823345 z" />
          <path
             inkscape:connector-curvature="0"
             id="path830"
             style="stroke-width:0.99178821"
             d="m 117.60829,39.666939 h -3.83543 V 25.545579 H 99.380309 v 14.12136 H 95.544878 V 10.823723 h 3.835431 V 22.136308 H 113.77286 V 10.823723 h 3.83543 z" />
        </g>
        <g
           id="text6164"
           style="font-style:normal;font-weight:normal;font-size:8.82086754px;line-height:1.25;font-family:sans-serif;letter-spacing:0px;word-spacing:0px;fill:#000000;fill-opacity:1;stroke:none;stroke-width:0.22052167"
           transform="scale(1.0423868,0.95933678)"
           aria-label="OF">
          <path
             inkscape:connector-curvature="0"
             id="path833"
             style="stroke-width:0.22052167"
             d="m 43.808861,119.75186 q 0.391943,0.43071 0.598682,1.05523 0.211046,0.62453 0.211046,1.41703 0,0.7925 -0.215353,1.42133 -0.211046,0.62452 -0.594375,1.04231 -0.39625,0.43501 -0.93894,0.65467 -0.538383,0.21966 -1.23182,0.21966 -0.676209,0 -1.231821,-0.22396 -0.551304,-0.22397 -0.93894,-0.65037 -0.387635,-0.4264 -0.598682,-1.04662 -0.206739,-0.62022 -0.206739,-1.41702 0,-0.78389 0.206739,-1.40411 0.206739,-0.62452 0.602989,-1.06815 0.379022,-0.42209 0.93894,-0.64606 0.564226,-0.22396 1.227514,-0.22396 0.68913,0 1.236127,0.22827 0.551304,0.22397 0.934633,0.64175 z m -0.07753,2.47226 q 0,-1.24905 -0.559918,-1.92526 -0.559919,-0.68052 -1.529008,-0.68052 -0.977704,0 -1.537622,0.68052 -0.555611,0.67621 -0.555611,1.92526 0,1.26197 0.568532,1.93387 0.568532,0.66759 1.524701,0.66759 0.956168,0 1.520393,-0.66759 0.568533,-0.6719 0.568533,-1.93387 z" />
          <path
             inkscape:connector-curvature="0"
             id="path835"
             style="stroke-width:0.22052167"
             d="m 50.067025,119.7734 h -3.243219 v 1.80897 h 2.78667 v 0.75804 h -2.78667 v 3.08816 h -0.852799 v -6.41322 h 4.096018 z" />
        </g>
        <g
           id="text6168"
           style="font-style:normal;font-weight:normal;font-size:8.80417728px;line-height:1.25;font-family:sans-serif;letter-spacing:0px;word-spacing:0px;fill:#000000;fill-opacity:1;stroke:none;stroke-width:0.22010441"
           transform="scale(1.0259133,0.97474122)"
           aria-label="ALESBURG">
          <path
             inkscape:connector-curvature="0"
             id="path838"
             style="stroke-width:0.22010441"
             d="m 68.043023,123.63836 h -0.907071 l -0.627641,-1.78405 H 63.73981 l -0.627642,1.78405 h -0.864082 l 2.330012,-6.40108 h 1.134913 z m -1.796946,-2.51487 -1.122017,-3.1425 -1.126316,3.1425 z" />
          <path
             inkscape:connector-curvature="0"
             id="path840"
             style="stroke-width:0.22010441"
             d="m 73.064156,123.63836 h -4.049578 v -6.40108 h 0.851185 v 5.64447 h 3.198393 z" />
          <path
             inkscape:connector-curvature="0"
             id="path842"
             style="stroke-width:0.22010441"
             d="M 78.132575,123.63836 H 73.91534 v -6.40108 h 4.217235 v 0.7566 h -3.36605 v 1.75396 h 3.36605 v 0.75661 h -3.36605 v 2.3773 h 3.36605 z" />
          <path
             inkscape:connector-curvature="0"
             id="path844"
             style="stroke-width:0.22010441"
             d="m 84.13816,121.81132 q 0,0.37401 -0.176256,0.73941 -0.171956,0.36541 -0.485777,0.61905 -0.343913,0.27513 -0.803897,0.42989 -0.455685,0.15476 -1.100522,0.15476 -0.692125,0 -1.246685,-0.12897 -0.550262,-0.12897 -1.122017,-0.3826 v -1.06613 h 0.06019 q 0.485777,0.4041 1.122016,0.62334 0.63624,0.21925 1.195099,0.21925 0.791,0 1.229489,-0.29663 0.442788,-0.29662 0.442788,-0.791 0,-0.42559 -0.210646,-0.62764 -0.206348,-0.20205 -0.631941,-0.31382 -0.322418,-0.086 -0.700723,-0.14187 -0.374006,-0.0559 -0.795299,-0.14186 -0.851185,-0.18056 -1.263881,-0.61475 -0.408397,-0.43848 -0.408397,-1.13921 0,-0.80389 0.679229,-1.31547 0.679228,-0.51587 1.723864,-0.51587 0.67493,0 1.238088,0.12897 0.563158,0.12897 0.997348,0.31812 v 1.00595 h -0.06018 q -0.365408,-0.30952 -0.962957,-0.51157 -0.59325,-0.20635 -1.216593,-0.20635 -0.683527,0 -1.100522,0.28373 -0.412696,0.28373 -0.412696,0.73081 0,0.3998 0.206348,0.62764 0.206348,0.22785 0.726517,0.34822 0.27513,0.0602 0.782402,0.14616 0.507272,0.086 0.859783,0.17625 0.71362,0.18916 1.074729,0.57176 0.361109,0.3826 0.361109,1.07043 z" />
          <path
             inkscape:connector-curvature="0"
             id="path846"
             style="stroke-width:0.22010441"
             d="m 90.332896,121.66946 q 0,0.47718 -0.180555,0.84258 -0.180554,0.36541 -0.485777,0.60185 -0.361109,0.28373 -0.795299,0.4041 -0.429892,0.12037 -1.096224,0.12037 h -2.269827 v -6.40108 h 1.895822 q 0.700723,0 1.048935,0.0516 0.348212,0.0516 0.666332,0.21495 0.352511,0.18485 0.511571,0.47718 0.159059,0.28802 0.159059,0.69212 0,0.45569 -0.232141,0.77811 -0.232141,0.31812 -0.619044,0.51157 v 0.0344 q 0.649136,0.13326 1.023142,0.57175 0.374006,0.43419 0.374006,1.10053 z m -1.431539,-2.88458 q 0,-0.23214 -0.07738,-0.3912 -0.07738,-0.15906 -0.249337,-0.25793 -0.202049,-0.11607 -0.490077,-0.14187 -0.288027,-0.0301 -0.71362,-0.0301 H 86.3564 v 1.84853 h 1.100522 q 0.399799,0 0.636239,-0.0387 0.23644,-0.043 0.438489,-0.17195 0.202049,-0.12897 0.283729,-0.33102 0.08598,-0.20635 0.08598,-0.48578 z m 0.545962,2.91897 q 0,-0.3869 -0.11607,-0.61475 -0.116071,-0.22784 -0.421294,-0.3869 -0.206348,-0.10747 -0.502973,-0.13756 -0.292326,-0.0344 -0.71362,-0.0344 H 86.3564 v 2.3816 h 1.126315 q 0.558859,0 0.915669,-0.0559 0.35681,-0.0602 0.584652,-0.21495 0.24074,-0.16766 0.352511,-0.3826 0.111772,-0.21495 0.111772,-0.55456 z" />
          <path
             inkscape:connector-curvature="0"
             id="path848"
             style="stroke-width:0.22010441"
             d="m 96.359975,121.06761 q 0,0.69642 -0.154761,1.21659 -0.150462,0.51587 -0.498674,0.85978 -0.331017,0.32672 -0.773805,0.47718 -0.442788,0.15047 -1.031739,0.15047 -0.601848,0 -1.048936,-0.15906 -0.447087,-0.15906 -0.75231,-0.46859 -0.348212,-0.35251 -0.502973,-0.85118 -0.150462,-0.49868 -0.150462,-1.22519 v -3.83033 H 92.2975 v 3.87332 q 0,0.52017 0.06878,0.82109 0.07308,0.30092 0.240739,0.54596 0.189153,0.27943 0.511571,0.4213 0.326718,0.14186 0.782403,0.14186 0.459983,0 0.782402,-0.13757 0.322419,-0.14186 0.51587,-0.42559 0.167657,-0.24504 0.23644,-0.55886 0.07308,-0.31812 0.07308,-0.7867 v -3.89481 h 0.851185 z" />
          <path
             inkscape:connector-curvature="0"
             id="path850"
             style="stroke-width:0.22010441"
             d="m 103.28552,123.63836 h -1.10482 l -2.14086,-2.54496 h -1.199393 v 2.54496 h -0.851186 v -6.40108 h 1.792648 q 0.580351,0 0.967251,0.0774 0.38691,0.0731 0.69643,0.26653 0.34821,0.21924 0.54166,0.55456 0.19775,0.33101 0.19775,0.84259 0,0.69212 -0.34821,1.1607 -0.34821,0.46429 -0.95866,0.70073 z m -1.99039,-4.59984 q 0,-0.27513 -0.0989,-0.48578 -0.0946,-0.21494 -0.31812,-0.36111 -0.18485,-0.12466 -0.43849,-0.17195 -0.25363,-0.0516 -0.597546,-0.0516 h -1.001647 v 2.41599 h 0.859782 q 0.404101,0 0.705021,-0.0688 0.30093,-0.0731 0.51157,-0.26653 0.19345,-0.18056 0.28373,-0.4127 0.0946,-0.23644 0.0946,-0.59755 z" />
          <path
             inkscape:connector-curvature="0"
             id="path852"
             style="stroke-width:0.22010441"
             d="m 109.45017,123.16548 q -0.52447,0.24074 -1.14781,0.42129 -0.61905,0.17626 -1.1994,0.17626 -0.74801,0 -1.37135,-0.20635 -0.62335,-0.20635 -1.06184,-0.61904 -0.44278,-0.417 -0.68352,-1.04034 -0.24074,-0.62764 -0.24074,-1.46593 0,-1.53471 0.89417,-2.42029 0.89848,-0.88988 2.46328,-0.88988 0.54596,0 1.11342,0.13327 0.57176,0.12897 1.22949,0.44279 v 1.01024 h -0.0774 q -0.13327,-0.10317 -0.3869,-0.27083 -0.25364,-0.16766 -0.49868,-0.27943 -0.29662,-0.13326 -0.67493,-0.21924 -0.374,-0.0903 -0.85118,-0.0903 -1.07473,0 -1.70237,0.69213 -0.62335,0.68782 -0.62335,1.86573 0,1.24238 0.65344,1.93451 0.65343,0.68782 1.77975,0.68782 0.4127,0 0.82109,-0.0817 0.4127,-0.0817 0.72222,-0.21064 v -1.56911 h -1.71527 v -0.74801 h 2.55786 z" />
        </g>
        <g
           id="text6172"
           style="font-style:normal;font-weight:normal;font-size:12.37265682px;line-height:1.25;font-family:sans-serif;letter-spacing:0px;word-spacing:0px;fill:#000000;fill-opacity:1;stroke:none;stroke-width:0.3093164"
           transform="scale(0.97325003,1.0274852)"
           aria-label="G">
          <path
             inkscape:connector-curvature="0"
             id="path855"
             style="stroke-width:0.3093164"
             d="m 64.649115,117.12005 q -0.737043,0.33832 -1.613037,0.59205 -0.869953,0.2477 -1.685533,0.2477 -1.051193,0 -1.927186,-0.28999 -0.875994,-0.28998 -1.49221,-0.86995 -0.622258,-0.58601 -0.960573,-1.462 -0.338315,-0.88204 -0.338315,-2.0601 0,-2.15675 1.256598,-3.40127 1.26264,-1.25056 3.461686,-1.25056 0.76725,0 1.564706,0.18728 0.803498,0.18124 1.727822,0.62226 v 1.41972 h -0.108744 q -0.187281,-0.145 -0.54372,-0.38061 -0.356439,-0.23561 -0.700795,-0.39268 -0.416852,-0.18729 -0.94849,-0.30811 -0.525596,-0.12687 -1.196184,-0.12687 -1.510335,0 -2.39237,0.97265 -0.875993,0.96662 -0.875993,2.62194 0,1.74595 0.918283,2.71861 0.918283,0.96661 2.501113,0.96661 0.579968,0 1.153895,-0.11479 0.579968,-0.11478 1.014945,-0.29602 v -2.20509 H 61.05452 v -1.05119 h 3.594595 z" />
        </g>
      </g>
    </g>
  </g>
</svg>
