<?xml version="1.0" encoding="utf-8"?>
<!-- Generator: Adobe Illustrator 22.1.0, SVG Export Plug-In . SVG Version: 6.00 Build 0)  -->
<svg version="1.1" id="Layer_1" xmlns="http://www.w3.org/2000/svg" xmlns:xlink="http://www.w3.org/1999/xlink" x="0px" y="0px"
	 viewBox="0 0 32 32" style="enable-background:new 0 0 32 32;" xml:space="preserve">
<style type="text/css">
	.st0{fill:none;}
	.st1{fill:#FFFFFF;}
</style>
<g>
	<title>background</title>
	<rect id="canvas_background" x="-1" y="-1" class="st0" width="582" height="402"/>
</g>
<g>
	<title>Layer 1</title>
	<path id="svg_1" class="st1" d="M29,15H3c0,0-1,0-1,1s1,1,1,1h26c0,0,1,0,1-1S29,15,29,15z M29,22.5H3c0,0-1,0-1,1s1,1,1,1h26
		c0,0,1,0,1-1S29,22.5,29,22.5z M29,7.5H3c0,0-1,0-1,1s1,1,1,1h26c0,0,1,0,1-1S29,7.5,29,7.5z"/>
</g>
</svg>
