<?xml version="1.0" encoding="utf-8"?>
<!-- Generator: Adobe Illustrator 22.1.0, SVG Export Plug-In . SVG Version: 6.00 Build 0)  -->
<svg version="1.1" id="Layer_1" xmlns="http://www.w3.org/2000/svg" xmlns:xlink="http://www.w3.org/1999/xlink" x="0px" y="0px"
	 viewBox="0 0 98 108" style="enable-background:new 0 0 98 108;" xml:space="preserve">
<style type="text/css">
	.st0{opacity:0.68;fill:#FFFFFF;enable-background:new    ;}
	.st1{opacity:0.7;fill:#FFFFFF;enable-background:new    ;}
	.st2{fill:#FFFFFF;}
</style>
<g>
	<path class="st0" d="M82.5,29.9c1.2-7.6,0-12.8-4.1-17.5c-4.5-5.2-12.8-7.4-23.3-7.4H24.6c-2.1,0-4,1.6-4.3,3.7L7.6,89.2
		c-0.3,1.6,1,3,2.6,3H29l-1.3,8.2c-0.2,1.4,0.9,2.6,2.3,2.6h15.9c1.9,0,3.5-1.4,3.8-3.2l0.2-0.8l3-19l0.2-1c0.3-1.9,1.9-3.2,3.8-3.2
		h2.4c15.4,0,27.4-6.2,30.9-24.3c1.5-7.6,0.7-13.9-3.2-18.3C85.7,31.9,84.2,30.8,82.5,29.9L82.5,29.9"/>
	<path class="st1" d="M82.5,29.9c1.2-7.6,0-12.8-4.1-17.5c-4.5-5.2-12.8-7.4-23.3-7.4H24.6c-2.1,0-4,1.6-4.3,3.7L7.6,89.2
		c-0.3,1.6,1,3,2.6,3H29l4.7-30l-0.1,0.9c0.3-2.1,2.1-3.7,4.3-3.7h9c17.6,0,31.4-7.1,35.4-27.8C82.3,31,82.4,30.4,82.5,29.9"/>
	<path class="st2" d="M38.8,30c0.2-1.3,1-2.3,2.1-2.9c0.5-0.2,1.1-0.4,1.6-0.4h23.9c2.8,0,5.5,0.2,7.9,0.6c0.7,0.1,1.4,0.2,2,0.4
		c0.7,0.1,1.3,0.3,1.9,0.5c0.3,0.1,0.6,0.2,0.9,0.3c1.2,0.4,2.3,0.9,3.3,1.4c1.2-7.6,0-12.8-4.1-17.5c-4.5-5.2-12.8-7.4-23.3-7.4
		H24.6c-2.1,0-4,1.6-4.3,3.7L7.6,89.2c-0.3,1.6,1,3,2.6,3H29l4.7-30L38.8,30z"/>
</g>
</svg>
